<mxfile host="app.diagrams.net" modified="2023-01-25T07:08:40.472Z" agent="5.0 (Windows NT 10.0; Win64; x64) AppleWebKit/537.36 (KHTML, like Gecko) Chrome/109.0.0.0 Safari/537.36" etag="xbosllHeKAAwAUuVhrk2" version="20.8.11" type="github">
  <diagram name="Page-1" id="zh7JXB26W0_RdsVID2wC">
    <mxGraphModel dx="874" dy="1562" grid="1" gridSize="10" guides="1" tooltips="1" connect="1" arrows="1" fold="1" page="1" pageScale="1" pageWidth="850" pageHeight="1100" math="0" shadow="0">
      <root>
        <mxCell id="0" />
        <mxCell id="1" parent="0" />
        <mxCell id="hHfTQkT4LjCeN-bW9tmU-3" value="" style="edgeStyle=orthogonalEdgeStyle;rounded=0;orthogonalLoop=1;jettySize=auto;html=1;startArrow=none;" edge="1" parent="1" source="hHfTQkT4LjCeN-bW9tmU-5" target="hHfTQkT4LjCeN-bW9tmU-2">
          <mxGeometry relative="1" as="geometry" />
        </mxCell>
        <mxCell id="hHfTQkT4LjCeN-bW9tmU-6" style="edgeStyle=orthogonalEdgeStyle;rounded=0;orthogonalLoop=1;jettySize=auto;html=1;exitX=0.5;exitY=1;exitDx=0;exitDy=0;entryX=0.5;entryY=0;entryDx=0;entryDy=0;" edge="1" parent="1" source="hHfTQkT4LjCeN-bW9tmU-1" target="hHfTQkT4LjCeN-bW9tmU-5">
          <mxGeometry relative="1" as="geometry" />
        </mxCell>
        <mxCell id="hHfTQkT4LjCeN-bW9tmU-1" value="start" style="ellipse;whiteSpace=wrap;html=1;" vertex="1" parent="1">
          <mxGeometry x="360" y="-620" width="120" height="80" as="geometry" />
        </mxCell>
        <mxCell id="hHfTQkT4LjCeN-bW9tmU-2" value="" style="ellipse;whiteSpace=wrap;html=1;" vertex="1" parent="1">
          <mxGeometry x="360" y="-40" width="120" height="80" as="geometry" />
        </mxCell>
        <mxCell id="hHfTQkT4LjCeN-bW9tmU-4" value="" style="edgeStyle=orthogonalEdgeStyle;rounded=0;orthogonalLoop=1;jettySize=auto;html=1;endArrow=none;" edge="1" parent="1" source="hHfTQkT4LjCeN-bW9tmU-1" target="hHfTQkT4LjCeN-bW9tmU-5">
          <mxGeometry relative="1" as="geometry">
            <mxPoint x="420" y="-540" as="sourcePoint" />
            <mxPoint x="420" y="-40" as="targetPoint" />
          </mxGeometry>
        </mxCell>
        <mxCell id="hHfTQkT4LjCeN-bW9tmU-5" value="process" style="rounded=0;whiteSpace=wrap;html=1;" vertex="1" parent="1">
          <mxGeometry x="360" y="-480" width="120" height="60" as="geometry" />
        </mxCell>
      </root>
    </mxGraphModel>
  </diagram>
</mxfile>
